<svg width="77" height="78" viewBox="0 0 77 78" fill="none" xmlns="http://www.w3.org/2000/svg">
<g filter="url(#filter0_d)">
<circle cx="38.4915" cy="35.4746" r="34.4915" fill="#F5F5F5"/>
</g>
<path d="M49.9355 43.2743H32.313L24.9041 26.3421H20.3052V24.2256H26.2889L33.6978 41.1578H49.9355V43.2743Z" fill="black"/>
<path d="M39.3525 48.5656C39.3525 50.3183 37.9305 51.7404 36.1777 51.7404C34.425 51.7404 33.0029 50.3183 33.0029 48.5656C33.0029 46.8128 34.425 45.3908 36.1777 45.3908C37.9305 45.3908 39.3525 46.8128 39.3525 48.5656Z" fill="black"/>
<path d="M49.935 48.5656C49.935 50.3183 48.513 51.7404 46.7602 51.7404C45.0075 51.7404 43.5854 50.3183 43.5854 48.5656C43.5854 46.8128 45.0075 45.3908 46.7602 45.3908C48.513 45.3908 49.935 46.8128 49.935 48.5656Z" fill="black"/>
<path d="M52.7717 30.5751L53.6191 28.4586H30.3384L31.1848 30.5751H52.7717Z" fill="black"/>
<path d="M33.7236 36.9247L34.57 39.0413H49.3857L50.2332 36.9247H33.7236Z" fill="black"/>
<path d="M51.9263 32.6917H32.0312L32.8776 34.8082H51.0789L51.9263 32.6917Z" fill="black"/>
<defs>
<filter id="filter0_d" x="0" y="0.983032" width="76.983" height="76.983" filterUnits="userSpaceOnUse" color-interpolation-filters="sRGB">
<feFlood flood-opacity="0" result="BackgroundImageFix"/>
<feColorMatrix in="SourceAlpha" type="matrix" values="0 0 0 0 0 0 0 0 0 0 0 0 0 0 0 0 0 0 127 0"/>
<feOffset dy="4"/>
<feGaussianBlur stdDeviation="2"/>
<feColorMatrix type="matrix" values="0 0 0 0 0 0 0 0 0 0 0 0 0 0 0 0 0 0 0.25 0"/>
<feBlend mode="normal" in2="BackgroundImageFix" result="effect1_dropShadow"/>
<feBlend mode="normal" in="SourceGraphic" in2="effect1_dropShadow" result="shape"/>
</filter>
</defs>
</svg>
