<svg width="19" height="16" viewBox="0 0 19 16" fill="none" xmlns="http://www.w3.org/2000/svg">
<path d="M16.899 10.864H6.84837L2.62287 1.20711H0V0H3.4127L7.63816 9.65691H16.899V10.864Z" fill="white"/>
<path d="M10.8634 13.8818C10.8634 14.8815 10.0524 15.6925 9.05274 15.6925C8.0531 15.6925 7.24207 14.8815 7.24207 13.8818C7.24207 12.8822 8.0531 12.0712 9.05274 12.0712C10.0524 12.0712 10.8634 12.8822 10.8634 13.8818Z" fill="white"/>
<path d="M16.899 13.8818C16.899 14.8815 16.088 15.6925 15.0883 15.6925C14.0887 15.6925 13.2776 14.8815 13.2776 13.8818C13.2776 12.8822 14.0887 12.0712 15.0883 12.0712C16.088 12.0712 16.899 12.8822 16.899 13.8818Z" fill="white"/>
<path d="M18.5167 3.62136L19 2.41425H5.72235L6.20508 3.62136H18.5167Z" fill="white"/>
<path d="M7.6532 7.24274L8.13593 8.44985H16.5857L17.0691 7.24274H7.6532Z" fill="white"/>
<path d="M18.0345 4.82849H6.68781L7.1705 6.03561H17.5512L18.0345 4.82849Z" fill="white"/>
</svg>
