<svg width="97" height="59" viewBox="0 0 97 59" fill="none" xmlns="http://www.w3.org/2000/svg">
<path d="M24.7234 22.7711L3.77831 35.5159C2.13228 36.5175 1.57584 38.7332 2.54165 40.4402L10.8825 55.182C11.8483 56.889 13.9849 57.466 15.631 56.4644L36.576 43.7197C38.2221 42.7181 38.7785 40.5024 37.8127 38.7953L29.4718 24.0536C28.506 22.3466 26.3694 21.7695 24.7234 22.7711ZM36.5077 39.1527C37.3929 40.7172 37.1147 41.8251 35.6061 42.743L15.2848 55.1082C13.7761 56.0262 12.7078 55.7377 11.8226 54.1732L3.84778 40.0783C2.96258 38.5138 3.2408 37.4059 4.74944 36.488L25.0707 24.1228C26.5794 23.2048 27.6477 23.4933 28.5329 25.0578L36.5077 39.1527ZM13.811 40.3597L17.9313 40.9824L21.603 30.1441L30.1779 31.9676L35.1167 40.6963L13.7978 53.6685L10.8343 48.4307L13.811 40.3597ZM7.48279 37.1731C6.24346 37.9272 5.82783 39.5822 6.55501 40.8674C7.2822 42.1527 8.87809 42.5837 10.1174 41.8296C11.3568 41.0754 11.7724 39.4204 11.0452 38.1352C10.318 36.85 8.72213 36.4189 7.48279 37.1731Z" fill="#777777"/>
<path d="M93.8758 30.3163L76.1453 13.1076C74.7519 11.7552 72.5453 11.831 71.2412 13.276L59.9789 25.7552C58.6748 27.2002 58.7479 29.4886 60.1413 30.841L77.8717 48.0496C79.2651 49.402 81.4718 49.3263 82.7758 47.8813L94.0381 35.402C95.3422 33.957 95.2692 31.6687 93.8758 30.3163ZM82.0749 46.6851C80.8797 48.0095 79.7764 48.0474 78.4993 46.8078L61.2969 30.1117C60.0198 28.8722 59.9833 27.728 61.1785 26.4036L71.9466 14.472C73.1418 13.1476 74.2451 13.1097 75.5222 14.3493L92.7246 31.0454C94.0017 32.2849 94.0382 33.4291 92.843 34.7535L82.0749 46.6851ZM74.515 24.459L75.1091 28.7328L86.1727 29.3067L86.9213 38.351L80.2527 45.7401L62.2059 28.2244L66.2075 23.7905L74.515 24.459ZM75.6648 17.2617C74.6157 16.2435 72.9675 16.3001 71.9856 17.388C71.0037 18.476 71.0583 20.1853 72.1074 21.2035C73.1565 22.2218 74.8047 22.1652 75.7866 21.0772C76.7685 19.9892 76.7139 18.28 75.6648 17.2617Z" fill="#777777"/>
<path d="M61.0326 0.864782L22.5185 6.91787C19.4917 7.39358 17.391 10.3504 17.8497 13.4893L21.8112 40.5966C22.2699 43.7355 25.1211 45.914 28.1479 45.4383L66.6619 39.3852C69.6887 38.9095 71.7894 35.9527 71.3307 32.8138L67.3692 5.70648C66.9105 2.56762 64.0593 0.38908 61.0326 0.864782ZM69.1818 32.5405C69.6022 35.4173 68.5518 36.8957 65.7777 37.3317L28.4107 43.2046C25.6366 43.6406 24.211 42.5513 23.7906 39.6744L20.0029 13.7566C19.5825 10.8797 20.6329 9.40132 23.407 8.96533L60.774 3.09251C63.5481 2.65651 64.9737 3.74579 65.3941 6.62264L69.1818 32.5405ZM34.6818 20.3266L40.4615 23.7978L52.1522 9.92065L63.878 17.9304L66.2237 33.981L27.0224 40.1421L25.6148 30.5107L34.6818 20.3266ZM27.0851 11.6733C24.8062 12.0314 23.237 14.24 23.5824 16.6033C23.9278 18.9666 26.0575 20.5938 28.3364 20.2357C30.6153 19.8775 32.1844 17.669 31.839 15.3056C31.4937 12.9423 29.364 11.3151 27.0851 11.6733Z" fill="#171717"/>
</svg>
